<svg
    xmlns="http://www.w3.org/2000/svg"
    viewBox="0 0 24 24"
    id="vector">
    <path
        id="path"
        d="M 7 10 L 7 7 C 7 5.674 7.527 4.402 8.464 3.465 C 9.402 2.527 10.674 2 12 2 C 13.326 2 14.598 2.527 15.536 3.465 C 16.473 4.402 17 5.674 17 7 C 17 7.55 16.55 8 16 8 C 15.45 8 15 7.55 15 7 C 15 6.204 14.684 5.441 14.121 4.879 C 13.559 4.316 12.796 4 12 4 C 11.204 4 10.441 4.316 9.879 4.879 C 9.316 5.441 9 6.204 9 7 L 9 10 L 18 10 C 18.53 10 19.039 10.211 19.414 10.586 C 19.789 10.961 20 11.47 20 12 L 20 20 C 20 20.53 19.789 21.039 19.414 21.414 C 19.039 21.789 18.53 22 18 22 L 6 22 C 5.47 22 4.961 21.789 4.586 21.414 C 4.211 21.039 4 20.53 4 20 L 4 12 C 4 11.47 4.211 10.961 4.586 10.586 C 4.961 10.211 5.47 10 6 10 L 7 10 Z M 6 12 L 6 20 L 18 20 L 18 12 L 6 12 Z M 14 14 L 16 14 L 16 18 L 14 18 L 14 14 Z"
        fill="#000000"
        fill-rule="evenodd"/>
</svg>
