<svg
    xmlns="http://www.w3.org/2000/svg"
    viewBox="0 0 24 24"
    id="vector">
    <path
        id="path"
        d="M 12 12 M 4 12 C 4 9.879 4.843 7.843 6.343 6.343 C 7.843 4.843 9.879 4 12 4 C 14.121 4 16.157 4.843 17.657 6.343 C 19.157 7.843 20 9.879 20 12 C 20 14.121 19.157 16.157 17.657 17.657 C 16.157 19.157 14.121 20 12 20 C 9.879 20 7.843 19.157 6.343 17.657 C 4.843 16.157 4 14.121 4 12"
        fill="#00000000"
        stroke="#000000"
        stroke-width="2"/>
    <path
        id="path_3"
        d="M 11.143 13.25 L 12.475 13.25 L 12.475 13.185 C 12.475 12.82 12.732 12.52 13.355 12.09 C 14.258 11.445 14.623 10.844 14.623 10.006 C 14.623 8.652 13.527 7.729 11.895 7.729 C 10.197 7.729 9.016 8.76 8.865 10.35 L 10.305 10.629 C 10.391 9.619 10.992 9.018 11.873 9.018 C 12.604 9.018 13.076 9.426 13.076 10.113 C 13.076 10.607 12.904 10.865 12.195 11.424 C 11.315 12.133 11.1 12.498 11.143 13.25 Z M 10.906 16 L 12.775 16 L 12.775 14.109 L 10.906 14.109 L 10.906 16 Z"
        fill="#000000"/>
</svg>
