<svg
    xmlns="http://www.w3.org/2000/svg"
    viewBox="0 0 28 28"
    id="vector">
    <path
        id="path"
        d="M 14 14 M 1 14 C 1 10.554 2.371 7.245 4.808 4.808 C 7.245 2.371 10.554 1 14 1 C 17.446 1 20.755 2.371 23.192 4.808 C 25.629 7.245 27 10.554 27 14 C 27 17.446 25.629 20.755 23.192 23.192 C 20.755 25.629 17.446 27 14 27 C 10.554 27 7.245 25.629 4.808 23.192 C 2.371 20.755 1 17.446 1 14"
        fill="#00000000"
        stroke="#000000"
        stroke-width="2"/>
    <path
        id="path_1"
        d="M 9.172 14.001 M 7.724 14.001 C 7.724 13.617 7.877 13.248 8.148 12.976 C 8.42 12.705 8.788 12.552 9.172 12.552 C 9.556 12.552 9.925 12.705 10.197 12.976 C 10.468 13.248 10.621 13.617 10.621 14.001 C 10.621 14.384 10.468 14.753 10.197 15.025 C 9.925 15.296 9.556 15.449 9.172 15.449 C 8.788 15.449 8.42 15.296 8.148 15.025 C 7.877 14.753 7.724 14.384 7.724 14.001"
        fill="#020202"/>
    <path
        id="path_2"
        d="M 14 14 M 12.552 14 C 12.552 13.616 12.704 13.247 12.976 12.976 C 13.247 12.704 13.616 12.552 14 12.552 C 14.384 12.552 14.753 12.704 15.024 12.976 C 15.296 13.247 15.448 13.616 15.448 14 C 15.448 14.384 15.296 14.752 15.024 15.024 C 14.753 15.295 14.384 15.448 14 15.448 C 13.616 15.448 13.247 15.295 12.976 15.024 C 12.704 14.752 12.552 14.384 12.552 14"
        fill="#020202"/>
    <path
        id="path_3"
        d="M 18.828 14 M 17.379 14 C 17.379 13.616 17.532 13.247 17.804 12.976 C 18.075 12.704 18.444 12.552 18.828 12.552 C 19.212 12.552 19.58 12.704 19.852 12.976 C 20.123 13.247 20.276 13.616 20.276 14 C 20.276 14.384 20.123 14.752 19.852 15.024 C 19.58 15.295 19.212 15.448 18.828 15.448 C 18.444 15.448 18.075 15.295 17.804 15.024 C 17.532 14.752 17.379 14.384 17.379 14"
        fill="#020202"/>
</svg>
