<svg
    xmlns="http://www.w3.org/2000/svg"
    viewBox="0 0 24 24"
    id="vector">
    <defs>
        <clipPath id="clip_path">
            <path d="M 15.809 16.636 C 17.147 15.536 18 13.867 18 12 C 18 8.686 15.314 6 12 6 C 8.686 6 6 8.686 6 12 C 6 13.867 6.853 15.536 8.191 16.636 L 9.5 21 L 14.5 21 L 15.809 16.636 Z"/>
        </clipPath>
    </defs>
    <g id="group">
        <path
            id="path"
            clip-path="url(#clip_path)"
            d="M 15.809 16.636 L 14.539 15.091 L 14.069 15.478 L 13.894 16.061 L 15.809 16.636 Z M 8.191 16.636 L 10.106 16.061 L 9.931 15.478 L 9.461 15.091 L 8.191 16.636 Z M 9.5 21 L 7.584 21.575 L 8.012 23 L 9.5 23 L 9.5 21 Z M 14.5 21 L 14.5 23 L 15.988 23 L 16.416 21.575 L 14.5 21 Z M 16 12 C 16 13.244 15.434 14.355 14.539 15.091 L 17.08 18.18 C 18.86 16.716 20 14.491 20 12 L 16 12 Z M 12 8 C 14.209 8 16 9.791 16 12 L 20 12 C 20 7.582 16.418 4 12 4 L 12 8 Z M 8 12 C 8 9.791 9.791 8 12 8 L 12 4 C 7.582 4 4 7.582 4 12 L 8 12 Z M 9.461 15.091 C 8.566 14.355 8 13.244 8 12 L 4 12 C 4 14.491 5.141 16.716 6.92 18.18 L 9.461 15.091 Z M 11.416 20.425 L 10.106 16.061 L 6.275 17.211 L 7.584 21.575 L 11.416 20.425 Z M 14.5 19 L 9.5 19 L 9.5 23 L 14.5 23 L 14.5 19 Z M 13.894 16.061 L 12.584 20.425 L 16.416 21.575 L 17.725 17.211 L 13.894 16.061 Z"
            fill="#000000"/>
    </g>
    <path
        id="path_4"
        d="M 12 3 L 12 5"
        fill="#00000000"
        stroke="#000000"
        stroke-width="2"/>
    <path
        id="path_5"
        d="M 12 13 L 12 16"
        fill="#00000000"
        stroke="#000000"
        stroke-width="2"/>
    <path
        id="path_6"
        d="M 19 12 L 21 12"
        fill="#00000000"
        stroke="#000000"
        stroke-width="2"/>
    <path
        id="path_7"
        d="M 3 12 L 5 12"
        fill="#00000000"
        stroke="#000000"
        stroke-width="2"/>
    <path
        id="path_8"
        d="M 17.25 6.75 L 18.664 5.336"
        fill="#00000000"
        stroke="#000000"
        stroke-width="2"/>
    <path
        id="path_9"
        d="M 6.75 6.75 L 5.336 5.336"
        fill="#00000000"
        stroke="#000000"
        stroke-width="2"/>
    <path
        id="path_10"
        d="M 15 17 L 9 17"
        fill="#00000000"
        stroke="#000000"
        stroke-width="2"/>
</svg>
