<svg
    xmlns="http://www.w3.org/2000/svg"
    viewBox="0 0 24 24"
    id="vector">
    <path
        id="path_1"
        d="M 10.998 16.667 L 10.603 16.667 L 10.315 16.936 L 8.107 19 L 8.009 19 C 8.009 19 8.008 19 8.007 19 L 8.007 17.667 L 8.007 16.667 L 7.007 16.667 L 5.002 16.667 C 5.002 16.667 5.001 16.667 5 16.667 L 5 6 C 5.001 6 5.002 6 5.002 6 L 18.998 6 C 18.998 6 18.999 6 19 6 L 19 16.667 C 18.999 16.667 18.998 16.667 18.998 16.667 L 10.998 16.667 Z"
        fill="#00000000"
        stroke="#000000"
        stroke-width="2"/>
    <path
        id="path_2"
        d="M 8 9 L 15 9 L 15 11 L 8 11 Z"
        fill="#000000"/>
    <path
        id="path_3"
        d="M 8 12 L 13 12 L 13 14 L 8 14 Z"
        fill="#000000"/>
</svg>
