<svg
    xmlns="http://www.w3.org/2000/svg"
    viewBox="0 0 24 24"
    id="vector">
    <path
        id="path_1"
        d="M 10.873 3.861 C 10.759 3.861 10.685 3.936 10.685 4.051 L 10.685 5.293 C 10.683 5.535 10.514 5.766 10.286 5.836 C 9.405 6.111 8.618 6.597 7.968 7.233 C 7.796 7.404 7.51 7.442 7.3 7.322 L 6.232 6.719 C 6.133 6.663 6.035 6.689 5.979 6.791 L 4.888 8.796 C 4.831 8.901 4.861 9.004 4.958 9.059 L 6.026 9.662 C 6.233 9.78 6.35 10.04 6.302 10.277 C 6.221 10.67 6.179 11.08 6.179 11.5 C 6.179 11.92 6.221 12.324 6.302 12.718 C 6.352 12.955 6.235 13.22 6.026 13.338 L 4.958 13.941 C 4.861 13.996 4.831 14.093 4.888 14.198 L 5.979 16.203 C 6.035 16.305 6.133 16.337 6.232 16.281 L 7.3 15.678 C 7.509 15.556 7.795 15.592 7.968 15.761 C 8.618 16.397 9.405 16.883 10.286 17.158 C 10.516 17.229 10.685 17.463 10.685 17.707 L 10.685 18.949 C 10.685 19.064 10.759 19.14 10.873 19.14 L 13.127 19.14 C 13.24 19.14 13.314 19.064 13.314 18.949 L 13.314 17.707 C 13.314 17.463 13.484 17.229 13.713 17.158 C 14.595 16.883 15.382 16.397 16.031 15.761 C 16.205 15.592 16.491 15.556 16.7 15.678 L 17.768 16.281 C 17.867 16.337 17.965 16.305 18.02 16.203 L 19.112 14.198 C 19.169 14.093 19.139 13.996 19.042 13.941 L 17.974 13.338 C 17.765 13.22 17.648 12.955 17.698 12.718 C 17.779 12.324 17.821 11.92 17.821 11.5 C 17.821 11.08 17.779 10.67 17.698 10.277 C 17.65 10.04 17.767 9.78 17.974 9.662 L 19.042 9.059 C 19.139 9.004 19.169 8.901 19.112 8.796 L 18.02 6.791 C 17.965 6.689 17.867 6.663 17.768 6.719 L 16.7 7.322 C 16.49 7.442 16.204 7.404 16.031 7.233 C 15.382 6.597 14.595 6.111 13.713 5.836 C 13.486 5.766 13.316 5.535 13.314 5.293 L 13.314 4.051 C 13.314 3.936 13.24 3.861 13.127 3.861 L 10.873 3.861 Z M 16.579 5.255 L 16.855 5.099 C 17.852 4.536 19.097 4.882 19.653 5.901 L 20.744 7.905 C 21.283 8.894 20.947 10.12 19.955 10.68 L 19.654 10.849 C 19.671 11.065 19.68 11.282 19.68 11.5 C 19.68 11.718 19.671 11.935 19.653 12.15 L 19.954 12.32 C 20.941 12.877 21.286 14.094 20.744 15.088 L 19.652 17.095 C 19.109 18.091 17.874 18.476 16.855 17.901 L 16.575 17.743 C 16.138 18.073 15.669 18.356 15.173 18.585 L 15.173 18.949 C 15.173 20.085 14.274 21 13.127 21 L 10.873 21 C 9.726 21 8.827 20.085 8.827 18.949 L 8.827 18.585 C 8.331 18.356 7.861 18.073 7.425 17.743 L 7.144 17.901 C 6.125 18.476 4.891 18.091 4.347 17.093 L 3.256 15.089 C 2.714 14.094 3.059 12.877 4.045 12.32 L 4.346 12.15 C 4.329 11.935 4.32 11.719 4.32 11.5 C 4.32 11.282 4.329 11.065 4.346 10.849 L 4.046 10.68 C 3.053 10.12 2.717 8.894 3.256 7.906 L 4.348 5.9 C 4.902 4.882 6.147 4.536 7.145 5.099 L 7.42 5.254 C 7.858 4.923 8.329 4.639 8.827 4.409 L 8.827 4.051 C 8.827 2.915 9.726 2 10.873 2 L 13.127 2 C 14.274 2 15.173 2.915 15.173 4.051 L 15.173 4.409 C 15.669 4.638 16.139 4.922 16.579 5.255 Z M 12 13.917 C 13.305 13.917 14.363 12.866 14.363 11.569 C 14.363 10.273 13.305 9.222 12 9.222 C 10.695 9.222 9.637 10.273 9.637 11.569 C 9.637 12.866 10.695 13.917 12 13.917 Z"
        fill="#000000"/>
</svg>
