<svg
    xmlns="http://www.w3.org/2000/svg"
    viewBox="0 0 24 24"
    id="vector">
    <defs>
        <clipPath id="clip_path_1">
            <path d="M 12 21 C 6.96 21 5.604 20.745 4.429 19.57 C 3.248 18.389 3 17.04 3 12 C 3 6.96 3.255 5.611 4.429 4.429 C 5.604 3.255 6.96 3 12 3 C 17.04 3 18.396 3.255 19.57 4.429 C 20.752 5.611 21 6.96 21 12 C 21 17.04 20.752 18.389 19.57 19.57 C 18.396 20.745 17.04 21 12 21 Z"/>
        </clipPath>
        <clipPath id="clip_path_4">
            <path
                d="M 8.6 6 L 15.6 6 L 15.6 18 L 8.6 18 Z"
                clip-path="url(#clip_path_4_1)"/>
        </clipPath>
        <clipPath id="clip_path_4_1">
            <path d="M 12.615 8.736 C 13.293 8.736 13.572 8.482 13.572 7.881 C 13.572 7.254 13.28 7 12.615 7 C 11.951 7 11.659 7.254 11.659 7.881 C 11.659 8.482 11.938 8.736 12.615 8.736 Z M 11.686 15.678 L 11.566 15.598 L 13.147 10.017 L 9.945 10.017 L 9.6 11.259 L 11.46 11.245 L 10.251 15.505 C 10.038 16.279 10.556 17 11.407 17 C 11.672 17 11.938 16.933 12.23 16.746 L 14.409 15.264 L 13.745 14.276 L 11.686 15.678 Z"/>
        </clipPath>
    </defs>
    <g id="group">
        <path
            id="path_1"
            clip-path="url(#clip_path_1)"
            d="M 4.429 19.57 L 5.844 18.156 L 5.844 18.156 L 4.429 19.57 Z M 4.429 4.429 L 3.015 3.015 L 3.011 3.02 L 4.429 4.429 Z M 19.57 4.429 L 18.156 5.844 L 18.156 5.844 L 19.57 4.429 Z M 19.57 19.57 L 18.156 18.156 L 18.156 18.156 L 19.57 19.57 Z M 12 19 C 9.46 19 8.041 18.931 7.136 18.76 C 6.374 18.616 6.118 18.431 5.844 18.156 L 3.015 20.985 C 3.915 21.885 4.925 22.413 6.394 22.691 C 7.721 22.941 9.501 23 12 23 L 12 19 Z M 5.844 18.156 C 5.565 17.877 5.38 17.621 5.237 16.862 C 5.067 15.958 5 14.542 5 12 L 1 12 C 1 14.498 1.057 16.276 1.306 17.602 C 1.583 19.073 2.113 20.082 3.015 20.985 L 5.844 18.156 Z M 5 12 C 5 9.46 5.069 8.043 5.24 7.139 C 5.383 6.379 5.569 6.12 5.848 5.839 L 3.011 3.02 C 2.116 3.921 1.587 4.927 1.309 6.397 C 1.059 7.722 1 9.501 1 12 L 5 12 Z M 5.844 5.844 C 6.118 5.569 6.374 5.383 7.136 5.24 C 8.041 5.069 9.46 5 12 5 L 12 1 C 9.501 1 7.721 1.059 6.394 1.309 C 4.925 1.587 3.915 2.115 3.015 3.015 L 5.844 5.844 Z M 12 5 C 14.54 5 15.959 5.069 16.864 5.24 C 17.626 5.383 17.882 5.569 18.156 5.844 L 20.985 3.015 C 20.085 2.115 19.076 1.587 17.606 1.309 C 16.279 1.059 14.499 1 12 1 L 12 5 Z M 18.156 5.844 C 18.435 6.123 18.62 6.379 18.763 7.138 C 18.933 8.042 19 9.458 19 12 L 23 12 C 23 9.502 22.943 7.724 22.694 6.398 C 22.417 4.927 21.887 3.918 20.985 3.015 L 18.156 5.844 Z M 19 12 C 19 14.542 18.933 15.958 18.763 16.862 C 18.62 17.621 18.435 17.877 18.156 18.156 L 20.985 20.985 C 21.887 20.082 22.417 19.073 22.694 17.602 C 22.943 16.276 23 14.498 23 12 L 19 12 Z M 18.156 18.156 C 17.882 18.431 17.626 18.616 16.864 18.76 C 15.959 18.931 14.54 19 12 19 L 12 23 C 14.499 23 16.279 22.941 17.606 22.691 C 19.076 22.413 20.085 21.885 20.985 20.985 L 18.156 18.156 Z"
            fill="#000000"/>
    </g>
    <path
        id="path_2"
        d="M 12.615 8.736 C 13.293 8.736 13.572 8.482 13.572 7.881 C 13.572 7.254 13.28 7 12.615 7 C 11.951 7 11.659 7.254 11.659 7.881 C 11.659 8.482 11.938 8.736 12.615 8.736 Z M 11.686 15.678 L 11.566 15.598 L 13.147 10.017 L 9.945 10.017 L 9.6 11.259 L 11.46 11.245 L 10.251 15.505 C 10.038 16.279 10.556 17 11.407 17 C 11.672 17 11.938 16.933 12.23 16.746 L 14.409 15.264 L 13.745 14.276 L 11.686 15.678 Z"
        fill="#000000"
        fill-rule="evenodd"/>
    <g id="group_1">
        <path
            id="path_4"
            clip-path="url(#clip_path_4)"
            d="M 11.686 15.678 L 11.602 15.803 L 11.686 15.859 L 11.77 15.802 L 11.686 15.678 Z M 11.566 15.598 L 11.422 15.557 L 11.392 15.662 L 11.482 15.723 L 11.566 15.598 Z M 13.147 10.017 L 13.291 10.058 L 13.345 9.867 L 13.147 9.867 L 13.147 10.017 Z M 9.945 10.017 L 9.945 9.867 L 9.832 9.867 L 9.801 9.977 L 9.945 10.017 Z M 9.6 11.259 L 9.456 11.219 L 9.402 11.41 L 9.601 11.409 L 9.6 11.259 Z M 11.46 11.245 L 11.604 11.286 L 11.659 11.094 L 11.459 11.095 L 11.46 11.245 Z M 10.251 15.505 L 10.107 15.464 L 10.106 15.465 L 10.251 15.505 Z M 12.23 16.746 L 12.311 16.873 L 12.315 16.87 L 12.23 16.746 Z M 14.409 15.264 L 14.493 15.388 L 14.616 15.304 L 14.533 15.181 L 14.409 15.264 Z M 13.745 14.276 L 13.869 14.193 L 13.785 14.067 L 13.66 14.152 L 13.745 14.276 Z M 12.615 8.886 C 12.967 8.886 13.252 8.821 13.448 8.645 C 13.648 8.466 13.722 8.202 13.722 7.881 L 13.422 7.881 C 13.422 8.161 13.357 8.324 13.248 8.422 C 13.134 8.524 12.941 8.586 12.615 8.586 L 12.615 8.886 Z M 13.722 7.881 C 13.722 7.547 13.644 7.277 13.444 7.094 C 13.246 6.915 12.961 6.85 12.615 6.85 L 12.615 7.15 C 12.934 7.15 13.127 7.212 13.242 7.316 C 13.353 7.418 13.422 7.588 13.422 7.881 L 13.722 7.881 Z M 12.615 6.85 C 12.27 6.85 11.985 6.915 11.787 7.094 C 11.587 7.277 11.509 7.547 11.509 7.881 L 11.809 7.881 C 11.809 7.588 11.877 7.418 11.989 7.316 C 12.104 7.212 12.297 7.15 12.615 7.15 L 12.615 6.85 Z M 11.509 7.881 C 11.509 8.202 11.583 8.466 11.783 8.645 C 11.979 8.821 12.264 8.886 12.615 8.886 L 12.615 8.586 C 12.29 8.586 12.097 8.524 11.983 8.422 C 11.874 8.324 11.809 8.161 11.809 7.881 L 11.509 7.881 Z M 11.769 15.553 L 11.649 15.473 L 11.482 15.723 L 11.602 15.803 L 11.769 15.553 Z M 11.71 15.639 L 13.291 10.058 L 13.002 9.976 L 11.422 15.557 L 11.71 15.639 Z M 13.147 9.867 L 9.945 9.867 L 9.945 10.167 L 13.147 10.167 L 13.147 9.867 Z M 9.801 9.977 L 9.456 11.219 L 9.745 11.299 L 10.09 10.057 L 9.801 9.977 Z M 9.601 11.409 L 11.461 11.396 L 11.459 11.095 L 9.599 11.109 L 9.601 11.409 Z M 11.316 11.204 L 10.107 15.464 L 10.395 15.546 L 11.604 11.286 L 11.316 11.204 Z M 10.106 15.465 C 9.868 16.333 10.456 17.15 11.407 17.15 L 11.407 16.85 C 10.657 16.85 10.209 16.225 10.396 15.544 L 10.106 15.465 Z M 11.407 17.15 C 11.701 17.15 11.995 17.075 12.311 16.873 L 12.149 16.62 C 11.881 16.791 11.643 16.85 11.407 16.85 L 11.407 17.15 Z M 12.315 16.87 L 14.493 15.388 L 14.324 15.14 L 12.146 16.622 L 12.315 16.87 Z M 14.533 15.181 L 13.869 14.193 L 13.62 14.36 L 14.284 15.348 L 14.533 15.181 Z M 13.66 14.152 L 11.601 15.554 L 11.77 15.802 L 13.829 14.4 L 13.66 14.152 Z"
            fill="#000000"/>
    </g>
</svg>
