<svg
    xmlns="http://www.w3.org/2000/svg"
    viewBox="0 0 24 24"
    id="vector">
    <path
        id="path_3"
        d="M 7.293 3.648 C 7.65 3.298 8.133 3 8.731 3 L 15.269 3 C 15.867 3 16.35 3.298 16.707 3.648 C 17.061 3.996 17.365 4.464 17.636 4.994 C 17.837 5.39 18.096 6.183 18.368 7.076 C 18.651 8.009 18.983 9.168 19.329 10.379 L 19.331 10.386 C 19.759 11.878 20.209 13.451 20.628 14.809 L 20.665 14.929 C 20.744 15.183 20.853 15.534 20.924 15.9 C 20.994 16.269 21.044 16.736 20.943 17.207 C 20.835 17.713 20.555 18.209 20.023 18.552 C 19.523 18.874 18.897 19 18.196 19 L 5.804 19 C 5.103 19 4.477 18.874 3.977 18.552 C 3.445 18.209 3.165 17.713 3.057 17.207 C 2.957 16.736 3.006 16.269 3.076 15.9 C 3.147 15.534 3.256 15.183 3.335 14.929 L 3.34 14.912 L 3.373 14.809 C 3.791 13.451 4.242 11.878 4.668 10.386 L 4.67 10.379 C 5.017 9.169 5.349 8.009 5.632 7.076 C 5.904 6.183 6.163 5.39 6.364 4.994 C 6.635 4.464 6.939 3.996 7.293 3.648 Z"
        fill="#000000"
        fill-rule="evenodd"/>
    <path
        id="path_4"
        d="M 11.919 22.981 C 10.753 22.981 9.78 22.156 9.551 21.058 C 9.495 20.788 9.724 20.562 10 20.562 L 13.838 20.562 C 14.114 20.562 14.344 20.788 14.287 21.058 C 14.058 22.156 13.085 22.981 11.919 22.981 Z"
        fill="#000000"/>
    <path
        id="path_5"
        d="M 11.919 1 C 10.753 1 9.78 1.825 9.551 2.922 C 9.495 3.193 9.724 3.419 10 3.419 L 13.838 3.419 C 14.114 3.419 14.344 3.193 14.287 2.922 C 14.058 1.825 13.085 1 11.919 1 Z"
        fill="#000000"/>
</svg>
