<svg
    xmlns="http://www.w3.org/2000/svg"
    viewBox="0 0 24 24"
    id="vector">
    <path
        id="path"
        d="M 7.255 5.448 L 6.364 4.994 L 6.364 4.994 L 7.255 5.448 Z M 5.63 10.661 L 4.668 10.386 L 5.63 10.661 Z M 4.328 15.103 L 5.284 15.398 L 5.284 15.398 L 4.328 15.103 Z M 4.295 15.21 L 3.34 14.912 L 3.34 14.912 L 4.295 15.21 Z M 19.705 15.21 L 18.75 15.507 L 18.75 15.507 L 19.705 15.21 Z M 19.672 15.103 L 18.716 15.398 L 18.716 15.398 L 19.672 15.103 Z M 18.37 10.661 L 19.331 10.386 L 19.331 10.386 L 18.37 10.661 Z M 16.745 5.448 L 15.854 5.902 L 15.854 5.902 L 16.745 5.448 Z M 8.731 5 L 12 5 L 12 3 L 8.731 3 L 8.731 5 Z M 8.146 5.902 C 8.368 5.467 8.556 5.211 8.694 5.076 C 8.829 4.944 8.837 5 8.731 5 L 8.731 3 C 8.133 3 7.65 3.298 7.293 3.648 C 6.939 3.996 6.635 4.464 6.364 4.994 L 8.146 5.902 Z M 6.591 10.936 C 6.94 9.718 7.268 8.573 7.546 7.658 C 7.836 6.703 8.043 6.106 8.146 5.902 L 6.364 4.994 C 6.163 5.39 5.904 6.183 5.632 7.076 C 5.348 8.01 5.016 9.173 4.668 10.386 L 6.591 10.936 Z M 5.284 15.398 C 5.71 14.017 6.166 12.424 6.591 10.936 L 4.668 10.386 C 4.242 11.878 3.791 13.451 3.373 14.809 L 5.284 15.398 Z M 5.25 15.507 C 5.261 15.471 5.272 15.434 5.284 15.398 L 3.373 14.809 C 3.362 14.842 3.352 14.876 3.34 14.912 L 5.25 15.507 Z M 5.804 17 C 5.316 17 5.118 16.908 5.061 16.871 C 5.036 16.855 5.026 16.851 5.013 16.79 C 4.993 16.695 4.992 16.53 5.04 16.277 C 5.088 16.03 5.166 15.777 5.25 15.507 L 3.34 14.912 C 3.261 15.167 3.148 15.525 3.076 15.9 C 3.006 16.269 2.957 16.736 3.057 17.207 C 3.165 17.713 3.445 18.209 3.977 18.552 C 4.477 18.874 5.103 19 5.804 19 L 5.804 17 Z M 12 17 L 5.804 17 L 5.804 19 L 12 19 L 12 17 Z M 12 19 L 18.196 19 L 18.196 17 L 12 17 L 12 19 Z M 18.196 19 C 18.897 19 19.523 18.874 20.023 18.552 C 20.555 18.209 20.835 17.713 20.943 17.207 C 21.044 16.736 20.994 16.269 20.924 15.9 C 20.852 15.525 20.739 15.167 20.66 14.912 L 18.75 15.507 C 18.834 15.777 18.912 16.03 18.959 16.277 C 19.008 16.53 19.007 16.695 18.987 16.79 C 18.974 16.851 18.964 16.855 18.939 16.871 C 18.882 16.908 18.684 17 18.196 17 L 18.196 19 Z M 20.66 14.912 C 20.648 14.876 20.638 14.842 20.628 14.809 L 18.716 15.398 C 18.728 15.434 18.739 15.471 18.75 15.507 L 20.66 14.912 Z M 20.628 14.809 C 20.209 13.451 19.759 11.878 19.331 10.386 L 17.409 10.936 C 17.834 12.424 18.29 14.017 18.716 15.398 L 20.628 14.809 Z M 19.331 10.386 C 18.984 9.173 18.652 8.01 18.368 7.076 C 18.096 6.183 17.837 5.39 17.636 4.994 L 15.854 5.902 C 15.957 6.106 16.164 6.703 16.454 7.658 C 16.733 8.573 17.06 9.718 17.409 10.936 L 19.331 10.386 Z M 17.636 4.994 C 17.365 4.464 17.061 3.996 16.707 3.648 C 16.35 3.298 15.867 3 15.269 3 L 15.269 5 C 15.163 5 15.171 4.944 15.306 5.076 C 15.444 5.211 15.632 5.467 15.854 5.902 L 17.636 4.994 Z M 15.269 3 L 12 3 L 12 5 L 15.269 5 L 15.269 3 Z"
        fill="#000000"/>
    <path
        id="path_1"
        d="M 11.919 22.981 C 10.753 22.981 9.78 22.156 9.551 21.058 C 9.495 20.788 9.724 20.562 10 20.562 L 13.838 20.562 C 14.114 20.562 14.344 20.788 14.287 21.058 C 14.058 22.156 13.085 22.981 11.919 22.981 Z"
        fill="#000000"/>
    <path
        id="path_2"
        d="M 11.919 1 C 10.753 1 9.78 1.825 9.551 2.922 C 9.495 3.193 9.724 3.419 10 3.419 L 13.838 3.419 C 14.114 3.419 14.344 3.193 14.287 2.922 C 14.058 1.825 13.085 1 11.919 1 Z"
        fill="#000000"/>
</svg>
