<svg
    xmlns="http://www.w3.org/2000/svg"
    viewBox="0 0 24 24"
    id="vector">
    <path
        id="path"
        d="M 12 23 C 5.84 23 4.182 22.688 2.747 21.253 C 1.303 19.809 1 18.16 1 12 C 1 5.84 1.312 4.191 2.747 2.747 C 4.182 1.312 5.84 1 12 1 C 18.16 1 19.818 1.312 21.253 2.747 C 22.697 4.191 23 5.84 23 12 C 23 18.16 22.697 19.809 21.253 21.253 C 19.818 22.688 18.16 23 12 23 Z"
        fill="#000000"
        fill-rule="evenodd"/>
    <path
        id="path_1"
        d="M 14.143 5 C 14.13 5.001 14.117 5.003 14.104 5.005 C 14.056 5.012 14.009 5.027 13.968 5.05 C 13.926 5.073 13.89 5.104 13.863 5.139 L 7.399 12.998 C 7.361 13.046 7.339 13.102 7.334 13.16 C 7.33 13.218 7.343 13.276 7.373 13.328 C 7.403 13.379 7.449 13.423 7.505 13.453 C 7.561 13.484 7.625 13.5 7.691 13.5 L 11.142 13.5 L 9.324 18.573 C 9.294 18.646 9.295 18.726 9.327 18.798 C 9.359 18.87 9.419 18.93 9.497 18.965 C 9.575 19 9.665 19.009 9.75 18.99 C 9.834 18.971 9.908 18.925 9.958 18.861 L 16.601 11.002 C 16.639 10.954 16.661 10.898 16.666 10.84 C 16.67 10.782 16.657 10.724 16.627 10.672 C 16.597 10.621 16.551 10.577 16.495 10.547 C 16.439 10.516 16.375 10.5 16.309 10.5 L 12.842 10.5 L 14.497 5.412 C 14.514 5.364 14.517 5.313 14.508 5.263 C 14.498 5.213 14.474 5.166 14.44 5.126 C 14.405 5.085 14.36 5.053 14.309 5.031 C 14.257 5.009 14.2 4.999 14.143 5 Z"
        fill="#ffffff"/>
</svg>
