<svg
    xmlns="http://www.w3.org/2000/svg"
    viewBox="0 0 24 24"
    id="vector">
    <path
        id="path_3"
        d="M 4.161 19.839 L 4.161 19.839 C 4.566 20.243 4.963 20.509 5.973 20.699 C 7.126 20.917 8.9 21 12 21 C 15.1 21 16.874 20.917 18.027 20.699 C 19.037 20.509 19.434 20.243 19.839 19.839 L 19.839 19.839 C 20.249 19.428 20.513 19.032 20.702 18.025 C 20.919 16.873 21 15.102 21 12 C 21 8.898 20.919 7.127 20.702 5.975 C 20.513 4.968 20.249 4.572 19.839 4.161 L 19.839 4.161 C 19.434 3.757 19.037 3.491 18.027 3.301 C 16.874 3.083 15.1 3 12 3 C 8.9 3 7.126 3.083 5.973 3.301 C 4.965 3.491 4.568 3.756 4.164 4.159 C 3.755 4.57 3.491 4.97 3.301 5.976 C 3.083 7.128 3 8.9 3 12 C 3 15.102 3.081 16.873 3.298 18.025 C 3.487 19.032 3.751 19.428 4.161 19.839 Z M 21.253 21.253 C 22.697 19.809 23 18.16 23 12 C 23 5.84 22.697 4.191 21.253 2.747 C 19.818 1.312 18.16 1 12 1 C 5.84 1 4.182 1.312 2.747 2.747 C 1.312 4.191 1 5.84 1 12 C 1 18.16 1.303 19.809 2.747 21.253 C 4.182 22.688 5.84 23 12 23 C 18.16 23 19.818 22.688 21.253 21.253 Z"
        fill="#000000"
        fill-rule="evenodd"/>
    <path
        id="path_4"
        d="M 14.143 5 C 14.13 5.001 14.117 5.003 14.104 5.005 C 14.056 5.012 14.009 5.027 13.968 5.05 C 13.926 5.073 13.89 5.104 13.863 5.139 L 7.399 12.998 C 7.361 13.046 7.339 13.102 7.334 13.16 C 7.33 13.218 7.343 13.276 7.373 13.328 C 7.403 13.379 7.449 13.423 7.505 13.453 C 7.561 13.484 7.625 13.5 7.691 13.5 L 11.142 13.5 L 9.324 18.573 C 9.294 18.646 9.295 18.726 9.327 18.798 C 9.359 18.87 9.419 18.93 9.497 18.965 C 9.575 19 9.665 19.009 9.75 18.99 C 9.834 18.971 9.908 18.925 9.958 18.861 L 16.601 11.002 C 16.639 10.954 16.661 10.898 16.666 10.84 C 16.67 10.782 16.657 10.724 16.627 10.672 C 16.597 10.621 16.551 10.577 16.495 10.547 C 16.439 10.516 16.375 10.5 16.309 10.5 L 12.842 10.5 L 14.497 5.412 C 14.514 5.364 14.517 5.313 14.508 5.263 C 14.498 5.213 14.474 5.166 14.44 5.126 C 14.405 5.085 14.36 5.053 14.309 5.031 C 14.257 5.009 14.2 4.999 14.143 5 Z"
        fill="#000000"/>
</svg>
