<?xml version="1.0" encoding="utf-8"?>
<!-- Generator: Adobe Illustrator 25.1.0, SVG Export Plug-In . SVG Version: 6.00 Build 0)  -->
<svg version="1.1" id="Слой_1" xmlns="http://www.w3.org/2000/svg" xmlns:xlink="http://www.w3.org/1999/xlink" x="0px" y="0px"
	 viewBox="0 0 96 96" style="enable-background:new 0 0 96 96;" xml:space="preserve">
<desc>Created with Sketch.</desc>
<g id="Page-1">
	<g id="Face-ID">
		<g>
			<g>
				<g id="Corners">
					<g id="Corner">
						<path d="M12.1,29.9V21c0-5,3.9-8.9,8.9-8.9h8.9c1.1,0,2.1-0.9,2.1-2.1S31.1,8,29.9,8H21C13.7,8,8,13.7,8,21v8.9
							C8,31.1,8.9,32,10,32S12.1,31.1,12.1,29.9z"/>
					</g>
					
						<g id="Corner_1_" transform="translate(68.070175, 11.929825) scale(-1, 1) translate(-68.070175, -11.929825) translate(56.140351, 0.000000)">
						<path d="M-3.9,29.9V21c0-5,3.9-8.9,8.9-8.9H14c1.1,0,2.1-0.9,2.1-2.1S15.1,8,14,8H5C-2.3,8-8,13.7-8,21v8.9
							c0,1.1,0.9,2.1,2.1,2.1S-3.9,31.1-3.9,29.9z"/>
					</g>
					
						<g id="Corner_2_" transform="translate(11.929825, 68.070175) scale(1, -1) translate(-11.929825, -68.070175) translate(0.000000, 56.140351)">
						<path d="M12.1,14V5c0-5,3.9-8.9,8.9-8.9h8.9c1.1,0,2.1-0.9,2.1-2.1S31.1-8,29.9-8H21C13.7-8,8-2.3,8,5V14C8,15.1,8.9,16,10,16
							S12.1,15.1,12.1,14z"/>
					</g>
					
						<g id="Corner_3_" transform="translate(68.070175, 68.070175) scale(-1, -1) translate(-68.070175, -68.070175) translate(56.140351, 56.140351)">
						<path d="M-3.9,14V5C-3.9,0,0-3.9,5-3.9H14c1.1,0,2.1-0.9,2.1-2.1S15.1-8,14-8H5C-2.3-8-8-2.3-8,5V14c0,1.1,0.9,2.1,2.1,2.1
							S-3.9,15.1-3.9,14z"/>
					</g>
				</g>
				<g id="Eye" transform="translate(21.754386, 28.070175)">
					<path id="Path" d="M8,10.1v5.7C8,17,8.9,18,10,18s2-1,2-2.1v-5.7C12,8.9,11.1,8,10,8S8,8.9,8,10.1z"/>
				</g>
				<g id="Eye_1_" transform="translate(54.736842, 28.070175)">
					<path id="Path_1_" d="M8,10.1v5.7C8,17,8.9,18,10,18s2-1,2-2.1v-5.7C12,8.9,11.1,8,10,8S8,8.9,8,10.1z"/>
				</g>
				<path id="Mouth" d="M33.9,67.1c3.9,3.6,8.6,5.5,14.1,5.5s10.2-1.8,14.1-5.5c0.9-0.8,0.9-2.1,0.1-3c-0.8-0.8-2.1-0.9-3-0.1
					c-3.1,2.9-6.8,4.3-11.2,4.3s-8.1-1.4-11.2-4.3c-0.9-0.8-2.2-0.7-3,0.1C33,64.9,33.1,66.3,33.9,67.1z"/>
				<path id="Nose" d="M48,38.2v14.7c0,0.9-0.5,1.4-1.4,1.4h-1.4c-1.2,0-2.1,0.9-2.1,2.1s0.9,2.1,2.1,2.1h1.4c3.3,0,5.6-2.3,5.6-5.6
					V38.2c0-1.2-0.9-2.1-2.1-2.1S48,37,48,38.2z"/>
			</g>
		</g>
	</g>
</g>
</svg>
