<?xml version="1.0" encoding="utf-8"?>
<!-- Generator: Adobe Illustrator 25.1.0, SVG Export Plug-In . SVG Version: 6.00 Build 0)  -->
<svg version="1.1" id="vector" xmlns="http://www.w3.org/2000/svg" xmlns:xlink="http://www.w3.org/1999/xlink" x="0px" y="0px"
	 viewBox="0 0 20.1 20.1" style="enable-background:new 0 0 20.1 20.1;" xml:space="preserve">
<style type="text/css">
	.st0{fill:none;stroke:#000000;stroke-width:2;}
</style>
<path id="path_4" class="st0" d="M5.1,1.1H1.6c-0.3,0-0.5,0.2-0.5,0.5v3.5 M15.1,19.1h3.5c0.3,0,0.5-0.2,0.5-0.5v-3.5 M1.1,15.1v3.5
	c0,0.3,0.2,0.5,0.5,0.5h3.5 M19.1,5.1V1.6c0-0.3-0.2-0.5-0.5-0.5h-3.5"/>
<path id="path_5" d="M10.1,10.3c0-1.9-1.2-3.2-3-3.2c-1.8,0-3,1.3-3,3.2c0,1.7,1,2.9,2.5,3.2v0.1c0,1.1,0.5,1.5,1.5,1.5
	c0.4,0,0.6,0,0.8,0v-1c-0.2,0-0.4,0-0.7,0c-0.3,0-0.4-0.1-0.4-0.4v-0.2C9.2,13.1,10.1,11.9,10.1,10.3z M5.5,10.3c0-1.2,0.6-2,1.6-2
	s1.6,0.8,1.6,2s-0.6,2-1.6,2S5.5,11.5,5.5,10.3z"/>
<path id="path_6" d="M14.5,13.4h1.5l-1.5-2.5c0.7-0.3,1.1-0.9,1.1-1.8c0-1.2-0.8-2-2.3-2h-2.7v6.2h1.4v-2.3h1.1L14.5,13.4z
	 M12.1,8.3h1.2c0.7,0,1,0.3,1,0.8c0,0.5-0.3,0.8-1,0.8h-1.2V8.3z"/>
</svg>
